<!DOCTYPE svg PUBLIC "-//W3C//DTD SVG 1.1//EN" "http://www.w3.org/Graphics/SVG/1.1/DTD/svg11.dtd">
<!-- Uploaded to: SVG Repo, www.svgrepo.com, Transformed by: SVG Repo Mixer Tools -->
<svg height="800px" width="800px" version="1.1" id="Layer_1" xmlns="http://www.w3.org/2000/svg" xmlns:xlink="http://www.w3.org/1999/xlink" viewBox="0 0 511.999 511.999" xml:space="preserve" fill="#ffffff" stroke="#ffffff">
<g id="SVGRepo_bgCarrier" stroke-width="0"/>
<g id="SVGRepo_tracerCarrier" stroke-linecap="round" stroke-linejoin="round"/>
<g id="SVGRepo_iconCarrier"> <path style="fill:#ffffff00;" d="M464.36,66.351H47.64c-21.782,0-39.439,17.657-39.439,39.438v300.42 c0,21.782,17.657,39.439,39.439,39.439H464.36c21.782,0,39.439-17.657,39.439-39.439v-300.42 C503.799,84.009,486.142,66.351,464.36,66.351z"/> <g> <path style="fill:#ffffff00FFF9F2;" d="M255.999,334.255c-43.15,0-78.254-35.105-78.254-78.255s35.104-78.255,78.254-78.255 s78.255,35.105,78.255,78.255S299.149,334.255,255.999,334.255z M255.999,194.146c-34.105,0-61.852,27.748-61.852,61.854 s27.748,61.854,61.852,61.854c34.106,0,61.854-27.748,61.854-61.854C317.854,221.893,290.106,194.146,255.999,194.146z"/> <path style="fill:#ffffff00FFF9F2;" d="M255.999,453.848c-4.53,0-8.201-3.672-8.201-8.201V66.351c0-4.529,3.671-8.201,8.201-8.201 s8.201,3.672,8.201,8.201v379.296C264.2,450.177,260.529,453.848,255.999,453.848z"/> <path style="fill:#ffffff00FFF9F2;" d="M68.38,334.255H8.201c-4.53,0-8.201-3.672-8.201-8.201V185.945c0-4.529,3.671-8.201,8.201-8.201 H68.38c43.15,0,78.255,35.105,78.255,78.255S111.53,334.255,68.38,334.255z M16.402,317.853H68.38 c34.106,0,61.854-27.748,61.854-61.854s-27.748-61.854-61.854-61.854H16.402V317.853z"/> <path style="fill:#ffffff00FFF9F2;" d="M503.798,334.255h-60.179c-43.15,0-78.255-35.105-78.255-78.255s35.105-78.255,78.255-78.255h60.179 c4.53,0,8.201,3.672,8.201,8.201v140.109C511.999,330.583,508.328,334.255,503.798,334.255z M443.619,194.146 c-34.106,0-61.854,27.748-61.854,61.854s27.748,61.854,61.854,61.854h51.979V194.146H443.619z"/> </g> <path style="fill:#ffffff0026150C;" d="M464.36,58.151H47.64C21.371,58.151,0,79.521,0,105.789v80.155v140.109v80.155 c0,26.268,21.371,47.64,47.64,47.64H464.36c26.268,0,47.639-21.371,47.639-47.64v-80.155V185.944v-80.155 C512,79.521,490.628,58.151,464.36,58.151z M247.799,317.293c-30.242-4.026-53.653-29.969-53.653-61.294 s23.412-57.268,53.653-61.294V317.293z M264.201,194.706c30.241,4.026,53.653,29.969,53.653,61.294s-23.412,57.268-53.653,61.294 L264.201,194.706L264.201,194.706z M16.402,194.145h51.98c34.106,0,61.854,27.748,61.854,61.854s-27.748,61.854-61.854,61.854 h-51.98V194.145z M16.402,406.209v-71.954h51.98c43.15,0,78.255-35.105,78.255-78.255s-35.105-78.255-78.255-78.255h-51.98v-71.955 c0-17.224,14.013-31.237,31.238-31.237h200.159v103.622c-39.31,4.112-70.054,37.443-70.054,77.825s30.745,73.711,70.054,77.825 v103.622H47.64C30.414,437.447,16.402,423.433,16.402,406.209z M464.36,437.447H264.201V333.824 c39.31-4.112,70.054-37.443,70.054-77.825s-30.745-73.711-70.054-77.825V74.552H464.36c17.224,0,31.237,14.013,31.237,31.237v71.954 h-51.98c-43.15,0-78.255,35.105-78.255,78.255s35.105,78.255,78.255,78.255h51.98v71.954 C495.598,423.433,481.584,437.447,464.36,437.447z M495.598,317.853h-51.98c-34.106,0-61.854-27.748-61.854-61.854 s27.748-61.854,61.854-61.854h51.98V317.853z"/> </g>
</svg>